# xmcd CD database file
#
# Track frame offsets:
#	150
#	21719
#	44521
#	69083
#	86710
#	107654
#	128114
#	151894
#	168081
#	187316
#	203273
#	222345
#	245117
#
# Disc length: 3471 seconds
#
# Revision: 2
# Processed by: cddbd v1.5.2PL0 Copyright (c) Steve Scherf et al.
# Submitted via: CDex 2.22
#
DISCID=b60d8d0d
DTITLE=Various Artist - Restoration: Reimagining the Songs of Elton John and Bernie Taupin
DYEAR=2018
DGENRE=Country
TTITLE0=Little Big Town - Rocket Man
TTITLE1=Maren Morris - Mona Lisas and Mad Hatters
TTITLE2=Don Henley and Vince Gill - Sacrifice
TTITLE3=Brothers Osborne - Take Me to the Pilot
TTITLE4=Miranda Lambert - My Father's Gun
TTITLE5=Chris Stapleton - I Want Love
TTITLE6=Lee Ann Womack - Honky Cat
TTITLE7=Kacey Musgraves - Roy Rogers
TTITLE8=Rhonda Vincent and Dolly Parton - Please
TTITLE9=Miley Cyrus - The Bitch is Back
TTITLE10=Dierks Bentley - Sad Songs (Say so Much)
TTITLE11=Rosanne Cash and Emmylou Harris - This Train Don't Stop There Anymore
TTITLE12=Willie Nelson - Border Song
EXTD=YEAR: 2018
EXTT0=
EXTT1=
EXTT2=
EXTT3=
EXTT4=
EXTT5=
EXTT6=
EXTT7=
EXTT8=
EXTT9=
EXTT10=
EXTT11=
EXTT12=
PLAYORDER=
